<svg width="56" height="26" viewBox="0 0 56 26" fill="none" xmlns="http://www.w3.org/2000/svg">
<g clip-path="url(#clip0_1412_18494)">
<path fill-rule="evenodd" clip-rule="evenodd" d="M33.7509 7C35.4788 7 36.7041 7.51509 36.7041 7.51509L36.1592 9.96959C36.1592 9.96959 35.033 9.41395 33.6527 9.41395C32.4295 9.41395 31.8397 9.93831 31.8397 10.4168C31.8397 11.7635 36.134 11.957 36.134 15.0088C36.134 17.5701 33.8127 19 30.8628 19C28.8725 19 27.3733 18.3547 27.3733 18.3547L27.9301 15.8133C27.9301 15.8133 29.2315 16.5775 30.9727 16.5775C32.1994 16.5775 32.9178 16.0306 32.9178 15.4196C32.9178 13.9689 28.6414 13.7694 28.6414 10.8814C28.6414 8.36315 31.0526 7 33.7509 7ZM9.06538 7.18514H14.2162C14.9601 7.18514 15.5677 7.6226 15.6878 8.38933L16.9958 15.0883L20.2017 7.18514H23.4326L18.4437 18.8091H15.2052L12.7893 9.73232C12.5677 8.89492 12.4738 8.62521 11.1575 8.16202C10.1352 7.75815 9 7.55564 9 7.55564L9.06538 7.18514ZM24.7318 7.18514H27.8041L25.2784 18.8091H22.1973L24.7318 7.18514ZM41.916 7.18514H44.5128L47 18.8091H44.1491L43.7689 17.0492H39.8327L39.2077 18.8091H35.9766L40.4905 8.2503C40.7794 7.57302 41.173 7.18514 41.916 7.18514ZM42.3361 10.3257L40.728 14.6874H43.2939L42.3361 10.3257Z" fill="white"/>
</g>
<defs>
<clipPath id="clip0_1412_18494">
<rect width="38" height="12" fill="white" transform="translate(9 7)"/>
</clipPath>
</defs>
</svg>
